<svg xmlns="http://www.w3.org/2000/svg" xmlns:xlink="http://www.w3.org/1999/xlink" width="500" zoomAndPan="magnify" viewBox="0 0 375 374.999991" height="500" preserveAspectRatio="xMidYMid meet" version="1.0"><defs><clipPath id="7b58a532c6"><path d="M 13.578125 167 L 193 167 L 193 208.503906 L 13.578125 208.503906 Z M 13.578125 167 " clip-rule="nonzero"/></clipPath><clipPath id="0d3e4fae45"><path d="M 182 166.503906 L 361.578125 166.503906 L 361.578125 208.503906 L 182 208.503906 Z M 182 166.503906 " clip-rule="nonzero"/></clipPath></defs><rect x="-37.5" width="450" fill="#ffffff" y="-37.499999" height="449.999989" fill-opacity="1"/><rect x="-37.5" width="450" fill="#ffffff" y="-37.499999" height="449.999989" fill-opacity="1"/><g clip-path="url(#7b58a532c6)"><path fill="#a8834c" d="M 13.8125 192.652344 C 14.449219 191.960938 15.136719 191.320312 15.875 190.738281 C 16.617188 190.152344 17.402344 189.632812 18.222656 189.167969 C 19.890625 188.25 21.644531 187.554688 23.492188 187.089844 C 25.335938 186.628906 27.203125 186.351562 29.101562 186.253906 C 30.996094 186.15625 32.890625 186.199219 34.777344 186.386719 C 35.71875 186.472656 36.660156 186.601562 37.59375 186.757812 C 38.066406 186.828125 38.523438 186.921875 38.988281 187.011719 C 39.453125 187.101562 39.914062 187.199219 40.371094 187.300781 C 42.21875 187.703125 44.027344 188.171875 45.828125 188.667969 C 49.429688 189.65625 52.980469 190.726562 56.546875 191.53125 C 58.328125 191.925781 60.113281 192.261719 61.902344 192.480469 C 63.648438 192.734375 65.398438 192.789062 67.152344 192.640625 C 67.988281 192.5625 68.804688 192.40625 69.609375 192.171875 C 70.375 191.945312 71.097656 191.617188 71.777344 191.195312 C 73.089844 190.355469 74.007812 189.203125 74.539062 187.742188 C 74.773438 187.082031 74.855469 186.40625 74.792969 185.707031 L 74.765625 185.464844 L 74.710938 185.230469 C 74.675781 185.074219 74.632812 184.921875 74.574219 184.769531 L 74.535156 184.660156 C 74.523438 184.625 74.507812 184.597656 74.492188 184.566406 L 74.453125 184.472656 L 74.402344 184.386719 C 74.332031 184.265625 74.253906 184.15625 74.167969 184.050781 C 73.757812 183.570312 73.253906 183.226562 72.65625 183.019531 C 72.355469 182.90625 72.042969 182.835938 71.722656 182.800781 C 71.421875 182.769531 71.125 182.78125 70.828125 182.832031 C 70.570312 182.871094 70.328125 182.957031 70.105469 183.085938 C 69.914062 183.199219 69.75 183.34375 69.621094 183.523438 C 69.328125 183.960938 69.203125 184.441406 69.246094 184.96875 C 69.289062 185.59375 69.480469 186.171875 69.816406 186.699219 C 69.859375 186.765625 69.902344 186.835938 69.945312 186.898438 L 70.085938 187.082031 L 70.238281 187.25 C 70.289062 187.304688 70.355469 187.367188 70.40625 187.417969 C 70.652344 187.65625 70.921875 187.871094 71.210938 188.0625 C 71.847656 188.46875 72.527344 188.785156 73.25 189.007812 C 73.628906 189.132812 74.019531 189.238281 74.425781 189.324219 C 74.828125 189.414062 75.246094 189.472656 75.660156 189.542969 C 77.332031 189.789062 79.007812 189.816406 80.683594 189.625 C 82.371094 189.441406 84.007812 189.050781 85.59375 188.453125 C 87.183594 187.859375 88.679688 187.085938 90.082031 186.132812 L 90.59375 185.765625 C 90.769531 185.648438 90.9375 185.523438 91.097656 185.390625 C 91.417969 185.121094 91.746094 184.859375 92.0625 184.585938 L 92.96875 183.722656 C 93.253906 183.421875 93.527344 183.105469 93.804688 182.796875 C 93.875 182.71875 93.949219 182.648438 94.011719 182.566406 L 94.199219 182.316406 L 94.578125 181.824219 C 94.835938 181.503906 95.070312 181.167969 95.289062 180.820312 C 95.71875 180.148438 96.085938 179.441406 96.386719 178.707031 C 96.671875 178.015625 96.867188 177.300781 96.96875 176.558594 L 97 176.296875 C 97.011719 176.207031 97.011719 176.128906 97.019531 176.035156 C 97.035156 175.867188 97.027344 175.6875 97.03125 175.515625 C 97.03125 175.429688 97.019531 175.347656 97.015625 175.261719 C 97.011719 175.171875 97.015625 175.09375 96.996094 175.011719 L 96.964844 174.78125 C 96.964844 174.703125 96.933594 174.625 96.917969 174.546875 C 96.785156 173.910156 96.539062 173.324219 96.179688 172.78125 C 96.136719 172.714844 96.09375 172.652344 96.042969 172.589844 L 95.902344 172.402344 L 95.75 172.234375 L 95.671875 172.148438 L 95.589844 172.074219 L 95.421875 171.917969 L 95.253906 171.785156 L 95.171875 171.707031 L 95.085938 171.648438 L 94.917969 171.53125 C 94.476562 171.253906 94 171.121094 93.476562 171.128906 C 92.957031 171.136719 92.484375 171.285156 92.050781 171.574219 C 91.527344 171.910156 91.09375 172.335938 90.746094 172.847656 C 90.367188 173.386719 90.097656 173.976562 89.933594 174.609375 C 89.855469 174.914062 89.804688 175.222656 89.785156 175.535156 L 89.785156 175.984375 C 89.785156 176.058594 89.796875 176.128906 89.804688 176.199219 C 89.808594 176.273438 89.828125 176.367188 89.839844 176.445312 C 89.945312 177.132812 90.148438 177.792969 90.453125 178.421875 C 91.070312 179.714844 92.082031 180.9375 93.304688 181.976562 C 93.925781 182.511719 94.574219 183 95.261719 183.449219 L 95.523438 183.617188 L 95.792969 183.785156 L 96.339844 184.105469 C 96.519531 184.214844 96.707031 184.3125 96.894531 184.40625 L 97.457031 184.699219 C 98.976562 185.453125 100.558594 186.042969 102.203125 186.46875 C 105.527344 187.339844 108.886719 187.515625 112.285156 187.003906 L 113.527344 186.78125 L 114.757812 186.488281 C 115.574219 186.261719 116.390625 186.019531 117.191406 185.710938 C 118.824219 185.101562 120.402344 184.371094 121.925781 183.519531 C 123.472656 182.679688 124.992188 181.71875 126.496094 180.714844 C 128.003906 179.707031 129.5 178.644531 131.027344 177.570312 C 134.066406 175.429688 137.191406 173.226562 140.636719 171.382812 C 142.378906 170.4375 144.1875 169.628906 146.054688 168.964844 C 146.289062 168.878906 146.527344 168.796875 146.769531 168.726562 L 147.488281 168.496094 L 148.21875 168.300781 C 148.460938 168.234375 148.703125 168.167969 148.953125 168.117188 C 149.445312 168.003906 149.9375 167.890625 150.4375 167.808594 C 150.6875 167.765625 150.941406 167.714844 151.1875 167.679688 L 151.945312 167.582031 C 153.996094 167.316406 156.046875 167.324219 158.097656 167.605469 C 158.355469 167.636719 158.613281 167.6875 158.871094 167.734375 C 159.125 167.785156 159.382812 167.828125 159.640625 167.882812 L 160.402344 168.074219 L 160.785156 168.175781 L 161.164062 168.292969 L 161.914062 168.539062 C 162.164062 168.628906 162.40625 168.734375 162.65625 168.828125 C 163.15625 169.015625 163.625 169.261719 164.101562 169.5 C 165.070312 169.996094 165.96875 170.589844 166.804688 171.285156 C 167.636719 171.972656 168.390625 172.734375 169.066406 173.574219 C 170.445312 175.269531 171.429688 177.171875 172.011719 179.277344 C 172.300781 180.347656 172.460938 181.4375 172.484375 182.546875 C 172.539062 184.859375 171.964844 187.007812 170.757812 188.984375 C 170.179688 189.9375 169.484375 190.796875 168.671875 191.5625 C 167.886719 192.308594 167.023438 192.957031 166.089844 193.507812 C 165.183594 194.039062 164.238281 194.488281 163.253906 194.855469 C 161.324219 195.558594 159.332031 195.980469 157.285156 196.125 C 156.277344 196.199219 155.273438 196.210938 154.265625 196.15625 C 154.011719 196.144531 153.761719 196.128906 153.507812 196.105469 L 153.132812 196.074219 L 152.742188 196.027344 C 152.222656 195.960938 151.710938 195.875 151.203125 195.761719 C 150.179688 195.539062 149.1875 195.222656 148.222656 194.816406 C 147.222656 194.394531 146.289062 193.859375 145.425781 193.207031 C 144.480469 192.507812 143.710938 191.652344 143.109375 190.640625 C 142.636719 189.832031 142.34375 188.964844 142.21875 188.039062 C 142.097656 187.109375 142.160156 186.195312 142.410156 185.292969 C 142.574219 184.703125 142.808594 184.144531 143.117188 183.617188 C 143.703125 182.628906 144.453125 181.785156 145.363281 181.085938 C 146.195312 180.4375 147.089844 179.890625 148.046875 179.445312 C 148.96875 179.015625 149.917969 178.660156 150.898438 178.386719 C 151.140625 178.320312 151.390625 178.253906 151.625 178.199219 L 152.339844 178.046875 C 152.8125 177.949219 153.285156 177.839844 153.757812 177.746094 L 155.191406 177.53125 L 155.910156 177.421875 L 156.632812 177.355469 L 158.074219 177.222656 C 158.554688 177.199219 159.039062 177.1875 159.519531 177.171875 L 160.242188 177.148438 C 160.484375 177.140625 160.722656 177.148438 160.964844 177.160156 L 162.40625 177.195312 C 164.332031 177.292969 166.238281 177.53125 168.125 177.910156 L 168.832031 178.054688 L 169.183594 178.125 L 169.53125 178.214844 L 170.921875 178.578125 C 171.390625 178.6875 171.839844 178.851562 172.296875 178.992188 L 172.980469 179.210938 C 173.207031 179.289062 173.4375 179.351562 173.652344 179.445312 L 174.996094 179.957031 C 175.21875 180.046875 175.445312 180.125 175.664062 180.222656 L 176.320312 180.515625 C 176.753906 180.71875 177.195312 180.90625 177.625 181.113281 L 178.894531 181.785156 L 179.527344 182.121094 L 180.144531 182.488281 L 181.367188 183.222656 L 182.542969 184.027344 L 183.132812 184.429688 C 183.328125 184.566406 183.511719 184.71875 183.703125 184.863281 C 185.246094 186 186.660156 187.277344 187.953125 188.695312 C 189.265625 190.117188 190.351562 191.699219 191.207031 193.4375 C 191.625 194.3125 191.960938 195.21875 192.210938 196.152344 C 192.460938 197.097656 192.59375 198.054688 192.605469 199.03125 C 192.625 200 192.519531 200.957031 192.292969 201.898438 C 192.074219 202.835938 191.742188 203.730469 191.296875 204.582031 C 190.855469 205.4375 190.296875 206.203125 189.617188 206.882812 C 188.933594 207.558594 188.160156 208.097656 187.289062 208.5 L 187.167969 208.261719 C 188.847656 207.386719 190.09375 206.09375 190.90625 204.382812 C 191.304688 203.550781 191.597656 202.683594 191.78125 201.78125 C 191.964844 200.878906 192.039062 199.964844 191.996094 199.046875 C 191.957031 198.125 191.808594 197.222656 191.550781 196.339844 C 191.289062 195.453125 190.945312 194.601562 190.523438 193.78125 C 189.660156 192.140625 188.582031 190.652344 187.285156 189.320312 C 186.003906 187.984375 184.605469 186.785156 183.09375 185.71875 C 182.902344 185.582031 182.722656 185.4375 182.53125 185.308594 L 181.949219 184.929688 L 180.785156 184.175781 L 179.582031 183.488281 L 178.980469 183.152344 L 178.359375 182.84375 L 177.113281 182.226562 C 176.695312 182.039062 176.265625 181.863281 175.839844 181.679688 L 175.191406 181.40625 C 174.980469 181.3125 174.757812 181.242188 174.542969 181.167969 L 173.238281 180.695312 C 173.023438 180.613281 172.796875 180.558594 172.574219 180.488281 L 171.90625 180.289062 C 171.460938 180.164062 171.023438 180.015625 170.5625 179.921875 L 169.21875 179.601562 L 168.886719 179.519531 L 168.550781 179.457031 L 167.867188 179.339844 L 167.183594 179.214844 L 166.847656 179.15625 C 166.734375 179.136719 166.617188 179.125 166.511719 179.109375 L 165.136719 178.941406 C 164.679688 178.875 164.214844 178.859375 163.753906 178.828125 L 163.0625 178.78125 C 162.832031 178.769531 162.601562 178.742188 162.371094 178.746094 L 160.984375 178.734375 C 160.753906 178.734375 160.523438 178.722656 160.292969 178.734375 L 159.601562 178.769531 C 159.136719 178.792969 158.675781 178.808594 158.214844 178.839844 L 156.839844 178.988281 L 156.148438 179.0625 L 155.464844 179.175781 L 154.097656 179.40625 C 153.648438 179.503906 153.199219 179.613281 152.75 179.71875 C 152.300781 179.820312 151.847656 179.917969 151.40625 180.050781 C 149.652344 180.582031 147.949219 181.359375 146.53125 182.503906 C 145.816406 183.070312 145.226562 183.75 144.765625 184.535156 C 144.316406 185.328125 144.089844 186.183594 144.09375 187.09375 C 144.097656 188.007812 144.332031 188.855469 144.804688 189.640625 C 145.28125 190.417969 145.890625 191.074219 146.628906 191.605469 C 147.367188 192.148438 148.160156 192.59375 149.007812 192.9375 C 149.855469 193.285156 150.730469 193.554688 151.628906 193.738281 C 152.078125 193.832031 152.527344 193.902344 152.984375 193.957031 C 153.214844 193.984375 153.441406 194.003906 153.671875 194.019531 C 153.902344 194.03125 154.128906 194.046875 154.359375 194.058594 C 155.28125 194.097656 156.199219 194.074219 157.117188 193.996094 C 158.960938 193.847656 160.753906 193.445312 162.484375 192.796875 C 163.34375 192.46875 164.164062 192.066406 164.949219 191.589844 C 165.734375 191.117188 166.457031 190.5625 167.113281 189.925781 C 167.765625 189.292969 168.320312 188.589844 168.785156 187.808594 C 169.75 186.210938 170.203125 184.476562 170.144531 182.609375 C 170.117188 181.699219 169.980469 180.804688 169.734375 179.925781 C 169.226562 178.144531 168.386719 176.539062 167.207031 175.109375 C 166.039062 173.671875 164.632812 172.53125 162.984375 171.6875 C 162.570312 171.492188 162.164062 171.277344 161.730469 171.125 C 161.519531 171.039062 161.308594 170.957031 161.09375 170.875 L 160.4375 170.667969 L 160.113281 170.566406 L 159.777344 170.484375 L 159.105469 170.316406 C 158.878906 170.269531 158.65625 170.234375 158.433594 170.191406 C 158.210938 170.148438 157.984375 170.105469 157.753906 170.085938 C 155.921875 169.847656 154.089844 169.851562 152.261719 170.101562 C 150.429688 170.34375 148.644531 170.773438 146.90625 171.398438 C 145.167969 172.027344 143.492188 172.785156 141.871094 173.671875 C 138.609375 175.421875 135.574219 177.578125 132.550781 179.722656 C 129.523438 181.871094 126.484375 184.046875 123.207031 185.851562 C 121.570312 186.769531 119.875 187.558594 118.121094 188.21875 C 117.246094 188.550781 116.347656 188.824219 115.4375 189.078125 L 114.066406 189.402344 L 112.683594 189.65625 C 108.917969 190.21875 105.199219 190.019531 101.515625 189.046875 C 99.695312 188.566406 97.945312 187.90625 96.261719 187.0625 L 95.636719 186.738281 C 95.425781 186.628906 95.21875 186.523438 95.019531 186.402344 L 94.414062 186.042969 L 94.109375 185.863281 L 93.8125 185.675781 C 93.023438 185.164062 92.269531 184.597656 91.554688 183.984375 C 90.132812 182.75 88.882812 181.277344 88.066406 179.550781 C 87.652344 178.683594 87.375 177.773438 87.238281 176.824219 C 87.089844 175.859375 87.148438 174.902344 87.40625 173.960938 C 87.660156 173.023438 88.066406 172.160156 88.628906 171.371094 C 89.1875 170.566406 89.878906 169.90625 90.707031 169.390625 C 91.121094 169.125 91.5625 168.921875 92.035156 168.785156 C 92.507812 168.648438 92.988281 168.578125 93.476562 168.578125 C 93.96875 168.574219 94.449219 168.644531 94.921875 168.78125 C 95.394531 168.917969 95.835938 169.117188 96.25 169.382812 C 96.355469 169.449219 96.453125 169.519531 96.550781 169.585938 L 96.703125 169.6875 C 96.75 169.726562 96.796875 169.765625 96.84375 169.804688 L 97.113281 170.027344 L 97.371094 170.28125 C 97.550781 170.445312 97.695312 170.636719 97.859375 170.816406 C 97.933594 170.910156 98.003906 171.007812 98.074219 171.101562 C 98.148438 171.199219 98.21875 171.296875 98.28125 171.398438 C 98.8125 172.214844 99.175781 173.097656 99.367188 174.054688 C 99.546875 175 99.566406 175.953125 99.421875 176.90625 C 99.28125 177.847656 99.023438 178.761719 98.65625 179.640625 C 98.289062 180.511719 97.847656 181.34375 97.332031 182.136719 C 97.078125 182.53125 96.808594 182.914062 96.515625 183.28125 L 96.082031 183.835938 L 95.863281 184.113281 C 95.792969 184.207031 95.707031 184.289062 95.628906 184.375 C 95.308594 184.722656 95 185.074219 94.671875 185.410156 L 93.644531 186.375 C 93.285156 186.679688 92.917969 186.972656 92.554688 187.269531 C 92.375 187.421875 92.179688 187.550781 91.988281 187.683594 L 91.410156 188.089844 C 89.84375 189.136719 88.175781 189.984375 86.402344 190.632812 C 84.632812 191.285156 82.808594 191.707031 80.929688 191.890625 C 79.050781 192.082031 77.179688 192.027344 75.316406 191.726562 C 74.378906 191.589844 73.464844 191.371094 72.570312 191.070312 C 71.660156 190.777344 70.8125 190.363281 70.015625 189.832031 C 69.621094 189.558594 69.253906 189.253906 68.914062 188.914062 C 67.84375 187.839844 67.265625 186.546875 67.1875 185.03125 C 67.136719 184.015625 67.410156 183.09375 68.015625 182.273438 C 68.320312 181.878906 68.695312 181.558594 69.132812 181.3125 C 69.566406 181.078125 70.023438 180.921875 70.511719 180.851562 C 71.496094 180.707031 72.445312 180.820312 73.367188 181.1875 C 74.296875 181.53125 75.070312 182.089844 75.691406 182.863281 C 75.996094 183.25 76.226562 183.679688 76.378906 184.144531 C 76.464844 184.371094 76.527344 184.605469 76.574219 184.84375 L 76.644531 185.199219 C 76.660156 185.316406 76.667969 185.4375 76.679688 185.558594 C 76.75 186.53125 76.613281 187.472656 76.269531 188.386719 C 75.566406 190.230469 74.367188 191.667969 72.679688 192.699219 C 71.859375 193.183594 70.992188 193.558594 70.074219 193.8125 C 69.160156 194.0625 68.234375 194.226562 67.292969 194.296875 C 65.414062 194.421875 63.546875 194.332031 61.691406 194.03125 C 59.839844 193.765625 58.011719 193.40625 56.199219 192.949219 C 52.585938 192.042969 49.042969 190.886719 45.492188 189.824219 C 43.710938 189.289062 41.925781 188.785156 40.125 188.351562 C 39.671875 188.238281 39.222656 188.128906 38.769531 188.035156 C 38.3125 187.945312 37.863281 187.832031 37.410156 187.75 C 36.5 187.582031 35.585938 187.425781 34.667969 187.316406 C 31 186.867188 27.242188 186.894531 23.632812 187.707031 C 21.820312 188.101562 20.085938 188.726562 18.433594 189.574219 C 16.785156 190.429688 15.308594 191.519531 14.007812 192.84375 Z M 13.8125 192.652344 " fill-opacity="1" fill-rule="nonzero"/></g><g clip-path="url(#0d3e4fae45)"><path fill="#a8834c" d="M 360.984375 192.84375 C 359.644531 191.570312 358.140625 190.527344 356.476562 189.722656 C 354.816406 188.933594 353.082031 188.367188 351.273438 188.027344 C 347.691406 187.320312 343.988281 187.382812 340.386719 187.910156 C 339.484375 188.042969 338.585938 188.214844 337.703125 188.414062 C 337.480469 188.460938 337.257812 188.511719 337.03125 188.570312 L 336.363281 188.726562 C 335.914062 188.828125 335.472656 188.945312 335.019531 189.0625 C 333.246094 189.527344 331.484375 190.070312 329.722656 190.632812 C 326.199219 191.761719 322.675781 192.992188 319.023438 193.976562 C 317.183594 194.472656 315.324219 194.871094 313.445312 195.171875 C 311.503906 195.511719 309.550781 195.632812 307.582031 195.53125 C 305.570312 195.398438 303.488281 194.933594 301.609375 193.835938 C 300.65625 193.269531 299.816406 192.566406 299.09375 191.722656 C 298.359375 190.867188 297.789062 189.917969 297.378906 188.871094 C 296.949219 187.761719 296.769531 186.617188 296.84375 185.433594 C 296.855469 185.28125 296.867188 185.132812 296.882812 184.980469 L 296.964844 184.535156 C 296.988281 184.382812 297.023438 184.234375 297.0625 184.085938 L 297.199219 183.648438 L 297.273438 183.429688 C 297.296875 183.355469 297.335938 183.28125 297.363281 183.203125 L 297.464844 182.976562 L 297.578125 182.757812 C 297.734375 182.46875 297.910156 182.195312 298.109375 181.9375 C 298.894531 180.9375 299.878906 180.207031 301.070312 179.753906 C 302.242188 179.28125 303.457031 179.136719 304.710938 179.316406 C 305.382812 179.410156 306.019531 179.621094 306.617188 179.945312 C 307.25 180.289062 307.789062 180.746094 308.234375 181.3125 C 309.082031 182.433594 309.476562 183.695312 309.421875 185.101562 C 309.40625 185.734375 309.304688 186.351562 309.121094 186.957031 C 308.941406 187.542969 308.695312 188.101562 308.378906 188.632812 C 308.300781 188.765625 308.222656 188.898438 308.136719 189.023438 L 307.882812 189.402344 L 307.582031 189.765625 C 307.484375 189.882812 307.382812 189.984375 307.277344 190.101562 C 306.867188 190.519531 306.417969 190.898438 305.9375 191.234375 C 305.019531 191.863281 304.035156 192.355469 302.980469 192.710938 C 302.476562 192.886719 301.972656 193.035156 301.472656 193.160156 C 300.96875 193.285156 300.464844 193.367188 299.960938 193.464844 C 297.945312 193.8125 295.914062 193.898438 293.875 193.710938 C 291.84375 193.527344 289.871094 193.085938 287.953125 192.390625 C 286.03125 191.703125 284.21875 190.796875 282.519531 189.671875 L 281.890625 189.238281 C 281.679688 189.089844 281.464844 188.953125 281.269531 188.789062 C 280.871094 188.46875 280.472656 188.152344 280.078125 187.828125 L 278.953125 186.78125 C 278.59375 186.417969 278.25 186.03125 277.898438 185.65625 C 277.816406 185.5625 277.722656 185.472656 277.644531 185.371094 L 277.402344 185.070312 L 276.925781 184.460938 C 276.597656 184.058594 276.296875 183.636719 276.015625 183.203125 C 275.425781 182.3125 274.925781 181.378906 274.503906 180.398438 C 274.066406 179.367188 273.761719 178.296875 273.59375 177.1875 C 273.40625 176.007812 273.425781 174.828125 273.648438 173.65625 C 273.886719 172.449219 274.339844 171.332031 275.007812 170.300781 C 275.085938 170.167969 275.175781 170.042969 275.269531 169.921875 C 275.359375 169.796875 275.449219 169.671875 275.546875 169.550781 L 275.847656 169.195312 C 275.902344 169.136719 275.949219 169.078125 276.003906 169.027344 L 276.171875 168.859375 C 276.28125 168.746094 276.394531 168.636719 276.507812 168.523438 L 276.875 168.214844 C 276.9375 168.164062 276.996094 168.109375 277.0625 168.0625 L 277.261719 167.921875 C 277.394531 167.828125 277.527344 167.734375 277.664062 167.644531 C 278.84375 166.910156 280.128906 166.53125 281.523438 166.519531 C 282.214844 166.511719 282.894531 166.609375 283.558594 166.804688 C 284.199219 166.996094 284.800781 167.265625 285.371094 167.613281 C 286.445312 168.277344 287.34375 169.125 288.070312 170.160156 C 288.773438 171.15625 289.285156 172.246094 289.601562 173.425781 C 289.761719 174.023438 289.863281 174.628906 289.90625 175.25 L 289.921875 175.71875 C 289.921875 175.875 289.921875 176.035156 289.921875 176.191406 C 289.921875 176.351562 289.902344 176.511719 289.890625 176.671875 C 289.878906 176.832031 289.851562 176.96875 289.832031 177.117188 C 289.664062 178.277344 289.328125 179.390625 288.824219 180.449219 C 288.347656 181.464844 287.753906 182.40625 287.050781 183.28125 C 286.378906 184.117188 285.636719 184.886719 284.828125 185.589844 C 284.039062 186.273438 283.207031 186.898438 282.332031 187.460938 L 282.003906 187.671875 L 281.667969 187.867188 L 281.011719 188.253906 C 280.796875 188.386719 280.574219 188.503906 280.34375 188.621094 L 279.671875 188.972656 C 277.855469 189.882812 275.964844 190.597656 274 191.113281 C 270.035156 192.167969 266.023438 192.390625 261.96875 191.785156 L 260.46875 191.511719 L 258.988281 191.160156 C 258.015625 190.886719 257.046875 190.59375 256.113281 190.234375 C 254.261719 189.535156 252.472656 188.703125 250.746094 187.734375 C 249.035156 186.792969 247.40625 185.761719 245.824219 184.703125 C 244.242188 183.640625 242.710938 182.546875 241.203125 181.464844 C 238.183594 179.304688 235.230469 177.199219 232.128906 175.511719 C 230.605469 174.671875 229.023438 173.953125 227.390625 173.351562 C 225.789062 172.773438 224.148438 172.363281 222.464844 172.125 C 220.8125 171.886719 219.15625 171.871094 217.5 172.070312 C 217.292969 172.085938 217.097656 172.125 216.894531 172.160156 L 216.296875 172.265625 L 215.707031 172.40625 L 215.414062 172.476562 L 215.125 172.566406 L 214.546875 172.742188 C 214.359375 172.808594 214.175781 172.886719 213.988281 172.953125 C 213.609375 173.085938 213.257812 173.273438 212.894531 173.4375 C 210.148438 174.777344 207.925781 177.460938 207.078125 180.425781 C 206.863281 181.15625 206.746094 181.898438 206.714844 182.65625 C 206.691406 183.394531 206.765625 184.121094 206.941406 184.839844 C 207.128906 185.550781 207.410156 186.230469 207.78125 186.867188 C 208.164062 187.515625 208.625 188.105469 209.15625 188.636719 C 210.230469 189.71875 211.628906 190.558594 213.152344 191.175781 C 214.722656 191.785156 216.351562 192.171875 218.03125 192.328125 C 218.875 192.414062 219.722656 192.441406 220.574219 192.414062 C 220.785156 192.414062 221 192.402344 221.210938 192.386719 L 221.527344 192.367188 L 221.832031 192.339844 C 222.234375 192.300781 222.640625 192.238281 223.042969 192.164062 C 223.847656 192.007812 224.628906 191.78125 225.390625 191.480469 C 226.121094 191.195312 226.808594 190.828125 227.445312 190.371094 C 228.027344 189.96875 228.507812 189.46875 228.890625 188.871094 C 229.234375 188.332031 229.410156 187.742188 229.417969 187.101562 C 229.433594 186.445312 229.285156 185.832031 228.972656 185.253906 C 228.613281 184.617188 228.148438 184.0625 227.582031 183.601562 C 226.394531 182.59375 224.835938 181.835938 223.21875 181.324219 C 223.015625 181.257812 222.816406 181.195312 222.601562 181.144531 L 221.953125 180.976562 C 221.523438 180.871094 221.09375 180.757812 220.660156 180.65625 L 219.34375 180.410156 L 218.6875 180.289062 L 218.015625 180.207031 L 216.6875 180.039062 C 216.242188 180.003906 215.796875 179.980469 215.34375 179.945312 L 214.675781 179.902344 C 214.453125 179.886719 214.226562 179.902344 214.003906 179.890625 L 212.660156 179.878906 C 212.4375 179.878906 212.214844 179.898438 211.992188 179.902344 L 211.320312 179.933594 C 210.871094 179.960938 210.421875 179.96875 209.976562 180.027344 L 208.636719 180.167969 C 208.523438 180.179688 208.414062 180.1875 208.300781 180.203125 L 207.964844 180.253906 L 207.292969 180.359375 L 206.621094 180.46875 L 206.285156 180.519531 L 205.953125 180.589844 L 204.632812 180.875 C 204.1875 180.957031 203.757812 181.09375 203.324219 181.210938 L 202.703125 181.398438 C 202.484375 181.460938 202.265625 181.511719 202.054688 181.585938 L 200.769531 182.019531 C 200.558594 182.097656 200.339844 182.15625 200.132812 182.242188 L 199.503906 182.496094 C 199.085938 182.664062 198.664062 182.832031 198.25 183 L 197.023438 183.574219 L 196.40625 183.863281 L 195.8125 184.1875 L 194.621094 184.835938 L 193.46875 185.550781 L 192.890625 185.910156 C 192.699219 186.03125 192.519531 186.171875 192.332031 186.300781 C 190.828125 187.3125 189.429688 188.457031 188.140625 189.730469 C 186.847656 190.992188 185.765625 192.410156 184.882812 193.984375 C 184.457031 194.769531 184.101562 195.589844 183.828125 196.441406 C 183.554688 197.292969 183.386719 198.160156 183.324219 199.050781 C 183.253906 199.949219 183.300781 200.839844 183.457031 201.722656 C 183.609375 202.617188 183.871094 203.472656 184.238281 204.300781 C 184.992188 206.015625 186.1875 207.332031 187.824219 208.253906 L 187.703125 208.492188 C 185.964844 207.597656 184.671875 206.265625 183.828125 204.5 C 183.417969 203.648438 183.117188 202.761719 182.925781 201.832031 C 182.730469 200.90625 182.65625 199.972656 182.695312 199.027344 C 182.734375 198.082031 182.882812 197.15625 183.144531 196.246094 C 183.410156 195.34375 183.757812 194.472656 184.183594 193.632812 C 185.058594 191.960938 186.148438 190.445312 187.460938 189.085938 C 188.757812 187.734375 190.167969 186.515625 191.699219 185.429688 C 191.886719 185.292969 192.070312 185.148438 192.265625 185.019531 L 192.851562 184.632812 L 194.023438 183.867188 L 195.238281 183.171875 L 195.847656 182.820312 L 196.472656 182.507812 L 197.726562 181.882812 C 198.152344 181.691406 198.582031 181.515625 199.011719 181.328125 L 199.65625 181.050781 C 199.867188 180.957031 200.09375 180.882812 200.308594 180.804688 L 201.625 180.328125 C 201.84375 180.242188 202.070312 180.183594 202.296875 180.113281 L 202.96875 179.914062 C 203.417969 179.785156 203.859375 179.632812 204.3125 179.535156 L 205.671875 179.207031 L 206.007812 179.125 L 206.34375 179.0625 L 207.035156 178.9375 C 208.875 178.601562 210.730469 178.398438 212.597656 178.332031 L 214 178.320312 C 214.234375 178.320312 214.46875 178.308594 214.703125 178.320312 L 215.402344 178.351562 C 215.867188 178.375 216.332031 178.394531 216.800781 178.421875 L 218.195312 178.574219 L 218.890625 178.648438 L 219.582031 178.765625 L 220.988281 179.003906 C 221.441406 179.101562 221.898438 179.207031 222.355469 179.3125 C 222.808594 179.417969 223.265625 179.515625 223.714844 179.648438 C 225.511719 180.191406 227.257812 180.980469 228.75 182.164062 C 229.507812 182.765625 230.128906 183.480469 230.617188 184.316406 C 231.109375 185.171875 231.351562 186.097656 231.347656 187.085938 C 231.347656 188.078125 231.09375 188.996094 230.585938 189.847656 C 230.078125 190.675781 229.433594 191.375 228.648438 191.945312 C 227.882812 192.507812 227.058594 192.972656 226.175781 193.332031 C 225.300781 193.691406 224.402344 193.96875 223.476562 194.160156 C 223.015625 194.253906 222.546875 194.328125 222.078125 194.382812 C 221.84375 194.410156 221.609375 194.433594 221.375 194.449219 C 221.140625 194.460938 220.90625 194.476562 220.671875 194.488281 C 219.734375 194.53125 218.796875 194.511719 217.863281 194.429688 C 215.976562 194.277344 214.148438 193.871094 212.375 193.207031 C 211.492188 192.867188 210.648438 192.453125 209.839844 191.964844 C 209.023438 191.476562 208.273438 190.902344 207.59375 190.242188 C 206.902344 189.582031 206.3125 188.839844 205.820312 188.023438 C 204.808594 186.355469 204.328125 184.542969 204.378906 182.59375 C 204.40625 181.640625 204.546875 180.707031 204.800781 179.789062 C 205.324219 177.941406 206.195312 176.277344 207.414062 174.796875 C 208.621094 173.304688 210.078125 172.121094 211.789062 171.246094 C 212.214844 171.046875 212.625 170.824219 213.078125 170.664062 C 213.296875 170.578125 213.511719 170.488281 213.738281 170.410156 L 214.40625 170.195312 L 214.742188 170.089844 L 215.078125 170.003906 L 215.765625 169.835938 C 215.996094 169.792969 216.226562 169.75 216.460938 169.710938 C 216.691406 169.667969 216.921875 169.621094 217.15625 169.597656 C 219.03125 169.351562 220.90625 169.355469 222.777344 169.609375 C 224.644531 169.851562 226.464844 170.292969 228.238281 170.921875 C 230.007812 171.554688 231.71875 172.320312 233.367188 173.214844 C 236.660156 174.988281 239.710938 177.148438 242.738281 179.300781 C 245.765625 181.449219 248.796875 183.605469 252.039062 185.386719 C 253.652344 186.292969 255.324219 187.070312 257.054688 187.71875 C 257.914062 188.054688 258.796875 188.3125 259.683594 188.558594 L 261.023438 188.875 L 262.382812 189.121094 C 266.070312 189.679688 269.722656 189.480469 273.332031 188.53125 C 275.117188 188.066406 276.835938 187.417969 278.488281 186.59375 L 279.101562 186.277344 C 279.304688 186.171875 279.511719 186.066406 279.707031 185.941406 L 280.300781 185.589844 L 280.597656 185.425781 L 280.886719 185.238281 C 281.660156 184.742188 282.394531 184.191406 283.089844 183.59375 C 284.472656 182.398438 285.679688 180.976562 286.457031 179.332031 C 286.847656 178.511719 287.109375 177.648438 287.242188 176.75 C 287.382812 175.851562 287.332031 174.964844 287.089844 174.085938 C 286.859375 173.210938 286.480469 172.398438 285.957031 171.65625 C 285.441406 170.90625 284.796875 170.292969 284.03125 169.808594 C 283.65625 169.566406 283.253906 169.382812 282.828125 169.257812 C 282.398438 169.128906 281.960938 169.066406 281.515625 169.0625 C 281.070312 169.0625 280.632812 169.125 280.203125 169.25 C 279.773438 169.375 279.375 169.554688 278.996094 169.796875 C 277.488281 170.746094 276.445312 172.390625 276.089844 174.144531 C 275.921875 175.039062 275.902344 175.933594 276.039062 176.832031 C 276.175781 177.734375 276.417969 178.605469 276.769531 179.449219 C 277.125 180.292969 277.554688 181.101562 278.054688 181.871094 C 278.300781 182.257812 278.566406 182.632812 278.851562 182.992188 L 279.273438 183.535156 L 279.488281 183.804688 C 279.554688 183.894531 279.640625 183.972656 279.714844 184.0625 C 280.027344 184.398438 280.328125 184.746094 280.648438 185.070312 L 281.65625 186.015625 C 282.007812 186.3125 282.367188 186.597656 282.722656 186.886719 C 282.890625 187.039062 283.089844 187.164062 283.277344 187.296875 L 283.84375 187.695312 C 285.378906 188.726562 287.019531 189.5625 288.757812 190.203125 C 290.496094 190.84375 292.285156 191.257812 294.125 191.441406 C 295.964844 191.628906 297.796875 191.570312 299.621094 191.273438 C 300.53125 191.144531 301.421875 190.933594 302.292969 190.644531 C 303.164062 190.359375 303.980469 189.964844 304.742188 189.457031 C 305.5 188.957031 306.121094 188.320312 306.601562 187.542969 C 307.078125 186.765625 307.335938 185.925781 307.378906 185.015625 C 307.429688 184.101562 307.183594 183.277344 306.644531 182.539062 C 306.375 182.191406 306.046875 181.914062 305.660156 181.699219 C 305.273438 181.488281 304.859375 181.347656 304.421875 181.28125 C 303.515625 181.148438 302.640625 181.246094 301.792969 181.582031 C 300.9375 181.898438 300.222656 182.410156 299.652344 183.121094 C 299.375 183.472656 299.167969 183.859375 299.027344 184.28125 C 298.949219 184.492188 298.890625 184.703125 298.847656 184.925781 L 298.78125 185.257812 L 298.75 185.59375 C 298.683594 186.503906 298.808594 187.386719 299.128906 188.242188 C 299.796875 189.992188 300.929688 191.359375 302.527344 192.339844 C 303.3125 192.808594 304.148438 193.164062 305.03125 193.410156 C 305.917969 193.65625 306.816406 193.816406 307.734375 193.886719 C 309.578125 194.007812 311.417969 193.921875 313.242188 193.628906 C 315.078125 193.363281 316.894531 193.007812 318.695312 192.5625 C 322.292969 191.679688 325.832031 190.535156 329.398438 189.476562 C 331.179688 188.949219 332.972656 188.449219 334.785156 188.015625 C 335.238281 187.90625 335.691406 187.796875 336.148438 187.703125 C 336.601562 187.613281 337.058594 187.503906 337.515625 187.421875 C 338.433594 187.253906 339.363281 187.101562 340.28125 186.988281 C 343.984375 186.550781 347.773438 186.589844 351.425781 187.417969 C 353.257812 187.824219 355.011719 188.460938 356.683594 189.320312 C 358.359375 190.191406 359.855469 191.304688 361.179688 192.652344 Z M 360.984375 192.84375 " fill-opacity="1" fill-rule="nonzero"/></g></svg>